<svg width="207" height="309" viewBox="0 0 207 309" fill="none" xmlns="http://www.w3.org/2000/svg">
<path d="M4.27989 106.095C4.27989 104.918 4.86444 103.899 5.72659 103.343C2.19337 99.7844 0 95.6688 0 89.7946C0 72.4803 19.2516 69.0703 19.2516 61.106C19.2516 69.0703 38.5033 72.4803 38.5033 89.7946C38.5033 95.6682 36.3105 99.7838 32.7767 103.342C33.6389 103.899 34.2234 104.917 34.2234 106.095C34.2234 107.804 33.0017 109.187 31.4634 109.278V126.386C33.0017 126.477 34.2234 127.86 34.2234 129.569C34.2234 131.279 33.0017 132.664 31.4634 132.755V141.687H67.5532V128.659H71.6953V119.688H72.0386C64.7368 111.893 60.2639 102.832 60.2639 90.1823C60.2639 54.4769 96.2951 44.7939 102.948 29.7825C101.78 30.1012 100.576 30.2736 99.362 30.2736C94.8267 30.2736 90.5907 28.0597 87.7407 24.1997C86.7495 22.8544 85.9595 21.3563 85.3934 19.7458L85.3055 19.4956L85.511 19.6418C87.9083 21.345 90.6927 22.2456 93.5627 22.2456C96.9295 22.2456 100.229 20.9633 102.855 18.6353C107.842 14.207 109.655 6.81875 107.364 0.249684L107.276 0L107.481 0.145648C108.799 1.08315 109.971 2.2418 110.965 3.58891C113.476 6.98936 114.63 11.2578 114.212 15.6088C113.794 19.9598 111.855 23.8722 108.752 26.6246C107.552 27.6894 106.208 28.5258 104.784 29.1351C110.667 44.5222 147.737 53.9662 147.737 90.1817C147.737 102.831 143.265 111.892 135.963 119.688H136.306V128.658H140.447V141.686H176.538V132.714C174.998 132.623 173.773 131.239 173.773 129.531C173.773 127.822 174.998 126.438 176.538 126.347V109.238C174.998 109.148 173.773 107.764 173.773 106.055C173.773 104.879 174.36 103.861 175.223 103.305C171.691 99.7475 169.497 95.6319 169.497 89.7578C169.497 72.4434 188.751 69.0311 188.751 61.0661C188.751 69.0305 208 72.4434 208 89.7578C208 95.6325 205.806 99.7481 202.272 103.305C203.136 103.861 203.721 104.879 203.721 106.055C203.721 107.764 202.497 109.147 200.959 109.238V126.347C202.497 126.439 203.721 127.822 203.721 129.531C203.721 131.239 202.497 132.623 200.959 132.714V141.686H200.976V309H176.994V178.072C176.994 168.595 164.61 162.386 164.61 162.386C164.61 162.386 152.226 168.594 152.226 178.072V309H121.366V168.31C121.366 155.022 104 146.317 104 146.317C104 146.317 86.6345 155.023 86.6345 168.31V309H55.7747V178.072C55.7747 168.595 43.391 162.386 43.391 162.386C43.391 162.386 31.0063 168.594 31.0063 178.072V309H7.0247V141.687H7.04045V132.755C5.50266 132.664 4.27934 131.28 4.27934 129.569C4.27934 127.86 5.50266 126.476 7.04045 126.386V109.279C5.5032 109.188 4.27989 107.804 4.27989 106.095Z" fill="#158E7C"/>
</svg>
