<svg width="90" height="16" viewBox="0 0 90 16" fill="none" xmlns="http://www.w3.org/2000/svg">
<path d="M0.769531 7.82422C0.769531 6.67188 0.98112 5.61719 1.4043 4.66016C1.82747 3.70312 2.41992 2.88281 3.18164 2.19922C3.94987 1.50911 4.86784 0.97526 5.93555 0.597656C7.00977 0.220052 8.19792 0.03125 9.5 0.03125C10.7956 0.03125 11.9805 0.220052 13.0547 0.597656C14.1289 0.97526 15.0469 1.50911 15.8086 2.19922C16.5768 2.88281 17.1725 3.70312 17.5957 4.66016C18.0189 5.61719 18.2305 6.67188 18.2305 7.82422C18.2305 8.85286 18.0612 9.80664 17.7227 10.6855C17.3906 11.5579 16.9186 12.3327 16.3066 13.0098L19.0508 15.5H15.125L14.1777 14.6406C13.5137 14.9922 12.791 15.2591 12.0098 15.4414C11.2285 15.6237 10.3919 15.7148 9.5 15.7148C8.19792 15.7148 7.00977 15.5228 5.93555 15.1387C4.86784 14.748 3.94987 14.2044 3.18164 13.5078C2.41992 12.8112 1.82747 11.9811 1.4043 11.0176C0.98112 10.0475 0.769531 8.98307 0.769531 7.82422ZM3.86523 7.82422C3.86523 8.61198 4.00521 9.32161 4.28516 9.95312C4.57161 10.5846 4.96549 11.125 5.4668 11.5742C5.97461 12.0169 6.57031 12.3587 7.25391 12.5996C7.94401 12.8405 8.69271 12.9609 9.5 12.9609C10.3659 12.9609 11.1569 12.8242 11.873 12.5508L7.49805 8.58594H11.4238L14.0801 10.998C14.4121 10.5749 14.6693 10.0996 14.8516 9.57227C15.0404 9.03841 15.1348 8.45573 15.1348 7.82422C15.1348 7.03646 14.9915 6.33008 14.7051 5.70508C14.4186 5.08008 14.0247 4.55273 13.5234 4.12305C13.0221 3.68685 12.4264 3.35482 11.7363 3.12695C11.0527 2.89909 10.3073 2.78516 9.5 2.78516C8.69271 2.78516 7.94401 2.89909 7.25391 3.12695C6.57031 3.35482 5.97461 3.68685 5.4668 4.12305C4.96549 4.55273 4.57161 5.08008 4.28516 5.70508C4.00521 6.33008 3.86523 7.03646 3.86523 7.82422ZM20.4918 0.236328H23.5875V8.64453C23.5875 9.33464 23.6819 9.94987 23.8707 10.4902C24.0595 11.0241 24.3395 11.4766 24.7105 11.8477C25.0882 12.2188 25.5536 12.502 26.107 12.6973C26.6604 12.8861 27.3049 12.9805 28.0406 12.9805C28.7698 12.9805 29.4111 12.8861 29.9645 12.6973C30.5243 12.502 30.9898 12.2188 31.3609 11.8477C31.7385 11.4766 32.0217 11.0241 32.2105 10.4902C32.3993 9.94987 32.4937 9.33464 32.4937 8.64453V0.236328H35.5895V9.01562C35.5895 10.0182 35.4202 10.9297 35.0816 11.75C34.7431 12.5703 34.2516 13.2734 33.607 13.8594C32.9625 14.4453 32.1715 14.8978 31.234 15.2168C30.303 15.5358 29.2385 15.6953 28.0406 15.6953C26.8427 15.6953 25.775 15.5358 24.8375 15.2168C23.9065 14.8978 23.1187 14.4453 22.4742 13.8594C21.8297 13.2734 21.3382 12.5703 20.9996 11.75C20.6611 10.9297 20.4918 10.0182 20.4918 9.01562V0.236328ZM38.7687 0.236328H46.5324C47.7043 0.236328 48.7199 0.360026 49.5793 0.607422C50.4387 0.848307 51.1516 1.19987 51.718 1.66211C52.2844 2.12435 52.7043 2.6875 52.9777 3.35156C53.2577 4.01562 53.3977 4.76758 53.3977 5.60742C53.3977 6.17383 53.3293 6.71419 53.1926 7.22852C53.0559 7.73633 52.8443 8.20508 52.5578 8.63477C52.2779 9.06445 51.923 9.44857 51.4934 9.78711C51.0637 10.1191 50.5591 10.3958 49.9797 10.6172L53.3 15.5H49.5109L46.6398 11.1641H46.552L41.8645 11.1543V15.5H38.7687V0.236328ZM46.6105 8.47852C47.1965 8.47852 47.7076 8.41016 48.1437 8.27344C48.5865 8.13672 48.9543 7.94466 49.2473 7.69727C49.5467 7.44987 49.7681 7.15039 49.9113 6.79883C50.0611 6.44076 50.1359 6.04362 50.1359 5.60742C50.1359 4.75456 49.843 4.09701 49.257 3.63477C48.6711 3.16602 47.7889 2.93164 46.6105 2.93164H41.8645V8.47852H46.6105ZM61.6746 0.236328H64.9559L72.3387 15.5H69.0867L67.866 12.9316H58.95L57.7684 15.5H54.5066L61.6746 0.236328ZM66.6453 10.3828L63.3445 3.44922L60.1316 10.3828H66.6453ZM74.0922 0.236328H77.1879L86.6996 5.2168V0.236328H89.7953V15.5H86.6996V8.49805L77.1879 3.54688V15.5H74.0922V0.236328Z" fill="#173B35"/>
</svg>
